<svg xmlns="http://www.w3.org/2000/svg" version="1.1" xmlns:xlink="http://www.w3.org/1999/xlink" xmlns:svgjs="http://svgjs.dev/svgjs" width="1000" height="623" viewBox="0 0 1000 623"><g transform="matrix(1,0,0,1,-0.6060606060606233,0.2522267206477409)"><svg viewBox="0 0 396 247" data-background-color="#ffffff" preserveAspectRatio="xMidYMid meet" height="623" width="1000" xmlns="http://www.w3.org/2000/svg" xmlns:xlink="http://www.w3.org/1999/xlink"><g id="tight-bounds" transform="matrix(1,0,0,1,0.2400000000000091,-0.09999999999999432)"><svg viewBox="0 0 395.52 247.2" height="247.2" width="395.52"><g><svg></svg></g><g><svg viewBox="0 0 395.52 247.2" height="247.2" width="395.52"><g transform="matrix(1,0,0,1,125.7822033898305,37.08)"><svg viewBox="0 0 143.95559322033898 173.04" height="173.04" width="143.95559322033898"><g><svg viewBox="0 0 143.95559322033898 173.04" height="173.04" width="143.95559322033898"><g><svg viewBox="0 0 143.95559322033898 173.04" height="173.04" width="143.95559322033898"><g><svg viewBox="0 0 143.95559322033898 173.04" height="173.04" width="143.95559322033898"><g id="textblocktransform"><svg viewBox="0 0 143.95559322033898 173.04" height="173.04" width="143.95559322033898" id="textblock"><g><svg viewBox="0 0 143.95559322033898 173.04" height="173.04" width="143.95559322033898"><g transform="matrix(1,0,0,1,0,0)"><svg width="143.95559322033898" viewBox="3 -35.400001525878906 29.450000762939453 35.400001525878906" height="173.04" data-palette-color="#8d021f"><path d="M11 0L3.5 0 3.5-27.35 3-32.35 3.5-35.4 10.5-35.4 10.5-20.8 24.95-20.8 24.95-35.4 31.95-35.4 31.95-16.6 32.45-13.15 32.45 0 24.95 0 24.95-14.25 10.5-14.25 10.5-10.2 11 0Z" opacity="1" transform="matrix(1,0,0,1,0,0)" fill="#8d021f" class="undefined-text-0" data-fill-palette-color="primary" id="text-0"></path></svg></g></svg></g></svg></g></svg></g><g></g></svg></g></svg></g></svg></g><g><path xmlns="http://www.w3.org/2000/svg" d="M0 247.2v-247.2h395.52v247.2zM379.915 231.595v-215.99h-364.31v215.99z" fill="#8d021f" fill-rule="nonzero" stroke="none" stroke-width="1" stroke-linecap="butt" stroke-linejoin="miter" stroke-miterlimit="10" stroke-dasharray="" stroke-dashoffset="0" font-family="none" font-weight="none" font-size="none" text-anchor="none" style="mix-blend-mode: normal" data-fill-palette-color="tertiary"></path></g></svg></g><defs></defs></svg><rect width="395.52" height="247.2" fill="none" stroke="none" visibility="hidden"></rect></g></svg></g></svg>